<svg xmlns="http://www.w3.org/2000/svg" viewBox="0 0 814 1000">
  <path fill="white" d="M788.1 340.9c-5.8 4.5-108.2 62.2-108.2 190.5 0 148.4 130.3 200.9 134.2 202.2-.6 3.2-20.7 71.9-68.7 141.9-42.8 61.6-87.5 123.1-155.5 123.1s-85.5-39.3-161-39.3c-73.8 0-98.8 40.7-164.7 40.7s-105.3-57.3-155.5-127.3C46.7 790.4 0 683.5 0 581.3 0 344 172.3 215.3 342.9 215.3c96.5 0 176.7 44.2 235.6 44.2 56.3 0 146.2-47.4 216.4-47.4 16.7 0 60.4.4 94.6 34.5zm-156.3-201.3c-30.7 35.9-81 63.2-129.9 63.2-6.4 0-12.9-.6-18.7-1.8-.5-3.9-.7-7.7-.7-11.5 0-42.4 17.6-87.2 48.7-122.5C567.4 40.1 622.1 10.2 671 8.5c.6 4.9 1 9.8 1 14.3 0 41.2-17.3 85.1-40.2 116.8z"/>
</svg>
